<?xml version="1.0" encoding="UTF-8" standalone="no"?>
<!DOCTYPE svg PUBLIC "-//W3C//DTD SVG 1.1//EN"
 "http://www.w3.org/Graphics/SVG/1.1/DTD/svg11.dtd">
<!-- Generated by graphviz version 2.43.0 (0)
 -->
<!-- Title: G Pages: 1 -->
<svg width="779pt" height="1124pt"
 viewBox="0.00 0.00 778.50 1124.00" xmlns="http://www.w3.org/2000/svg" xmlns:xlink="http://www.w3.org/1999/xlink">
<g id="graph0" class="graph" transform="scale(1 1) rotate(0) translate(4 1120)">
<title>G</title>
<polygon fill="white" stroke="transparent" points="-4,4 -4,-1120 774.5,-1120 774.5,4 -4,4"/>
<!-- hit1 -->
<g id="node1" class="node">
<title>hit1</title>
<polygon fill="#1a1a1a" stroke="#333333" points="360,-1116 252,-1116 252,-1073 360,-1073 360,-1116"/>
<text text-anchor="middle" x="306" y="-1090.8" font-family="sans-serif" font-size="14.00" fill="#ffffff">I&#39;ve been hit!</text>
</g>
<!-- dumb_def -->
<g id="node25" class="node">
<title>dumb_def</title>
<polygon fill="#fff494" stroke="#333333" points="395.5,-1044 216.5,-1044 216.5,-976 395.5,-976 395.5,-1044"/>
<text text-anchor="middle" x="306" y="-1028.8" font-family="sans-serif" font-size="14.00" fill="#000000">Dumb Defense Triggers:</text>
<text text-anchor="middle" x="306" y="-1013.8" font-family="sans-serif" font-size="14.00" fill="#000000">Weapon Shield, Spell</text>
<text text-anchor="middle" x="306" y="-998.8" font-family="sans-serif" font-size="14.00" fill="#000000">Shield, Elemental Shield,</text>
<text text-anchor="middle" x="306" y="-983.8" font-family="sans-serif" font-size="14.00" fill="#000000">Poison Shield, Reflect</text>
</g>
<!-- hit1&#45;&gt;dumb_def -->
<g id="edge1" class="edge">
<title>hit1&#45;&gt;dumb_def</title>
<path fill="none" stroke="#333333" d="M306,-1072.68C306,-1066.44 306,-1059.36 306,-1052.28"/>
<polygon fill="#333333" stroke="#333333" points="308.8,-1052.01 306,-1044.01 303.2,-1052.01 308.8,-1052.01"/>
</g>
<!-- hit2 -->
<g id="node2" class="node">
<title>hit2</title>
<polygon fill="#1a1a1a" stroke="#333333" points="368,-947 244,-947 244,-894 368,-894 368,-947"/>
<text text-anchor="middle" x="306" y="-931.8" font-family="sans-serif" font-size="14.00" fill="#ffffff">I&#39;ve been hit</text>
<text text-anchor="middle" x="306" y="-916.8" font-family="sans-serif" font-size="14.00" fill="#ffffff">again! Do I want</text>
<text text-anchor="middle" x="306" y="-901.8" font-family="sans-serif" font-size="14.00" fill="#ffffff">to take it?</text>
</g>
<!-- yes_take -->
<g id="node13" class="node">
<title>yes_take</title>
<polygon fill="#b4f177" stroke="#333333" points="288,-865 180,-865 180,-822 288,-822 288,-865"/>
<text text-anchor="middle" x="234" y="-839.8" font-family="sans-serif" font-size="14.00" fill="#000000">Yes</text>
</g>
<!-- hit2&#45;&gt;yes_take -->
<g id="edge3" class="edge">
<title>hit2&#45;&gt;yes_take</title>
<path fill="none" stroke="#333333" d="M281.22,-893.69C274.23,-886.41 266.61,-878.47 259.57,-871.14"/>
<polygon fill="#333333" stroke="#333333" points="261.39,-868.98 253.83,-865.15 257.35,-872.86 261.39,-868.98"/>
</g>
<!-- no_take -->
<g id="node18" class="node">
<title>no_take</title>
<polygon fill="#ff9999" stroke="#333333" points="437,-865 329,-865 329,-822 437,-822 437,-865"/>
<text text-anchor="middle" x="383" y="-839.8" font-family="sans-serif" font-size="14.00" fill="#000000">No</text>
</g>
<!-- hit2&#45;&gt;no_take -->
<g id="edge5" class="edge">
<title>hit2&#45;&gt;no_take</title>
<path fill="none" stroke="#333333" d="M332.5,-893.69C339.98,-886.41 348.12,-878.47 355.65,-871.14"/>
<polygon fill="#333333" stroke="#333333" points="358.02,-872.74 361.8,-865.15 354.11,-868.73 358.02,-872.74"/>
</g>
<!-- blocked -->
<g id="node3" class="node">
<title>blocked</title>
<polygon fill="#1a1a1a" stroke="#333333" points="380.5,-649 201.5,-649 201.5,-606 380.5,-606 380.5,-649"/>
<text text-anchor="middle" x="291" y="-623.8" font-family="sans-serif" font-size="14.00" fill="#ffffff">Did you actually block it?</text>
</g>
<!-- yes_inter -->
<g id="node15" class="node">
<title>yes_inter</title>
<polygon fill="#b4f177" stroke="#333333" points="272,-577 164,-577 164,-534 272,-534 272,-577"/>
<text text-anchor="middle" x="218" y="-551.8" font-family="sans-serif" font-size="14.00" fill="#000000">Yes</text>
</g>
<!-- blocked&#45;&gt;yes_inter -->
<g id="edge11" class="edge">
<title>blocked&#45;&gt;yes_inter</title>
<path fill="none" stroke="#333333" d="M269.49,-605.88C261.99,-598.68 253.45,-590.5 245.53,-582.89"/>
<polygon fill="#333333" stroke="#333333" points="247.32,-580.73 239.61,-577.22 243.44,-584.78 247.32,-580.73"/>
</g>
<!-- no_block -->
<g id="node21" class="node">
<title>no_block</title>
<polygon fill="#ff9999" stroke="#333333" points="416,-577 308,-577 308,-534 416,-534 416,-577"/>
<text text-anchor="middle" x="362" y="-551.8" font-family="sans-serif" font-size="14.00" fill="#000000">No</text>
</g>
<!-- blocked&#45;&gt;no_block -->
<g id="edge13" class="edge">
<title>blocked&#45;&gt;no_block</title>
<path fill="none" stroke="#333333" d="M311.92,-605.88C319.22,-598.68 327.52,-590.5 335.23,-582.89"/>
<polygon fill="#333333" stroke="#333333" points="337.25,-584.83 340.99,-577.22 333.32,-580.84 337.25,-584.83"/>
</g>
<!-- qualifier -->
<g id="node4" class="node">
<title>qualifier</title>
<polygon fill="#1a1a1a" stroke="#333333" points="464,-793 314,-793 314,-750 464,-750 464,-793"/>
<text text-anchor="middle" x="389" y="-767.8" font-family="sans-serif" font-size="14.00" fill="#ffffff">Did they say &#39;strike&#39;?</text>
</g>
<!-- yes_qual -->
<g id="node14" class="node">
<title>yes_qual</title>
<polygon fill="#b4f177" stroke="#333333" points="380,-721 272,-721 272,-678 380,-678 380,-721"/>
<text text-anchor="middle" x="326" y="-695.8" font-family="sans-serif" font-size="14.00" fill="#000000">Yes</text>
</g>
<!-- qualifier&#45;&gt;yes_qual -->
<g id="edge7" class="edge">
<title>qualifier&#45;&gt;yes_qual</title>
<path fill="none" stroke="#333333" d="M370.44,-749.88C364.09,-742.82 356.89,-734.82 350.16,-727.34"/>
<polygon fill="#333333" stroke="#333333" points="352.08,-725.29 344.65,-721.22 347.92,-729.04 352.08,-725.29"/>
</g>
<!-- no_qual -->
<g id="node19" class="node">
<title>no_qual</title>
<polygon fill="#ff9999" stroke="#333333" points="525,-649 417,-649 417,-606 525,-606 525,-649"/>
<text text-anchor="middle" x="471" y="-623.8" font-family="sans-serif" font-size="14.00" fill="#000000">No</text>
</g>
<!-- qualifier&#45;&gt;no_qual -->
<g id="edge8" class="edge">
<title>qualifier&#45;&gt;no_qual</title>
<path fill="none" stroke="#333333" d="M400.92,-749.85C415.19,-725.14 439.15,-683.66 455.02,-656.18"/>
<polygon fill="#333333" stroke="#333333" points="457.49,-657.5 459.06,-649.17 452.64,-654.7 457.49,-657.5"/>
</g>
<!-- duration -->
<g id="node5" class="node">
<title>duration</title>
<polygon fill="#1a1a1a" stroke="#333333" points="553,-207 429,-207 429,-154 553,-154 553,-207"/>
<text text-anchor="middle" x="491" y="-191.8" font-family="sans-serif" font-size="14.00" fill="#ffffff">Does it rely on a</text>
<text text-anchor="middle" x="491" y="-176.8" font-family="sans-serif" font-size="14.00" fill="#ffffff">duration or line</text>
<text text-anchor="middle" x="491" y="-161.8" font-family="sans-serif" font-size="14.00" fill="#ffffff">of sight?</text>
</g>
<!-- yes_dur -->
<g id="node16" class="node">
<title>yes_dur</title>
<polygon fill="#b4f177" stroke="#333333" points="473,-125 365,-125 365,-82 473,-82 473,-125"/>
<text text-anchor="middle" x="419" y="-99.8" font-family="sans-serif" font-size="14.00" fill="#000000">Yes</text>
</g>
<!-- duration&#45;&gt;yes_dur -->
<g id="edge29" class="edge">
<title>duration&#45;&gt;yes_dur</title>
<path fill="none" stroke="#333333" d="M466.22,-153.69C459.23,-146.41 451.61,-138.47 444.57,-131.14"/>
<polygon fill="#333333" stroke="#333333" points="446.39,-128.98 438.83,-125.15 442.35,-132.86 446.39,-128.98"/>
</g>
<!-- no_dur -->
<g id="node20" class="node">
<title>no_dur</title>
<polygon fill="#ff9999" stroke="#333333" points="617,-125 509,-125 509,-82 617,-82 617,-125"/>
<text text-anchor="middle" x="563" y="-99.8" font-family="sans-serif" font-size="14.00" fill="#000000">No</text>
</g>
<!-- duration&#45;&gt;no_dur -->
<g id="edge31" class="edge">
<title>duration&#45;&gt;no_dur</title>
<path fill="none" stroke="#333333" d="M515.78,-153.69C522.77,-146.41 530.39,-138.47 537.43,-131.14"/>
<polygon fill="#333333" stroke="#333333" points="539.65,-132.86 543.17,-125.15 535.61,-128.98 539.65,-132.86"/>
</g>
<!-- qual2 -->
<g id="node6" class="node">
<title>qual2</title>
<polygon fill="#1a1a1a" stroke="#333333" points="496.5,-505 353.5,-505 353.5,-462 496.5,-462 496.5,-505"/>
<text text-anchor="middle" x="425" y="-479.8" font-family="sans-serif" font-size="14.00" fill="#ffffff">What qualifier is it?</text>
</g>
<!-- Weapon -->
<g id="node8" class="node">
<title>Weapon</title>
<polygon fill="#bbbbbb" stroke="#333333" points="153.5,-433 14.5,-433 14.5,-390 153.5,-390 153.5,-433"/>
<text text-anchor="middle" x="84" y="-415.3" font-family="sans-serif" font-size="14.00" fill="#000000">Weapon</text>
<text text-anchor="middle" x="84" y="-400.3" font-family="sans-serif" font-size="14.00" fill="#000000">(or they didn&#39;t say)</text>
</g>
<!-- qual2&#45;&gt;Weapon -->
<g id="edge15" class="edge">
<title>qual2&#45;&gt;Weapon</title>
<path fill="none" stroke="#333333" d="M353.1,-467.74C297.02,-456.23 219.26,-440.26 161.74,-428.46"/>
<polygon fill="#333333" stroke="#333333" points="162.16,-425.69 153.76,-426.82 161.03,-431.17 162.16,-425.69"/>
</g>
<!-- Elemental -->
<g id="node9" class="node">
<title>Elemental</title>
<polygon fill="#bbbbbb" stroke="#333333" points="346,-433 238,-433 238,-390 346,-390 346,-433"/>
<text text-anchor="middle" x="292" y="-407.8" font-family="sans-serif" font-size="14.00" fill="#000000">Elemental</text>
</g>
<!-- qual2&#45;&gt;Elemental -->
<g id="edge17" class="edge">
<title>qual2&#45;&gt;Elemental</title>
<path fill="none" stroke="#333333" d="M385.81,-461.88C371.06,-454.11 354.14,-445.21 338.77,-437.12"/>
<polygon fill="#333333" stroke="#333333" points="339.75,-434.47 331.36,-433.22 337.14,-439.42 339.75,-434.47"/>
</g>
<!-- Arcane -->
<g id="node10" class="node">
<title>Arcane</title>
<polygon fill="#bbbbbb" stroke="#333333" points="479,-279 371,-279 371,-236 479,-236 479,-279"/>
<text text-anchor="middle" x="425" y="-253.8" font-family="sans-serif" font-size="14.00" fill="#000000">Arcane</text>
</g>
<!-- qual2&#45;&gt;Arcane -->
<g id="edge19" class="edge">
<title>qual2&#45;&gt;Arcane</title>
<path fill="none" stroke="#333333" d="M425,-461.83C425,-421.66 425,-332.98 425,-287.16"/>
<polygon fill="#333333" stroke="#333333" points="427.8,-287.12 425,-279.12 422.2,-287.12 427.8,-287.12"/>
</g>
<!-- Spell -->
<g id="node11" class="node">
<title>Spell</title>
<polygon fill="#bbbbbb" stroke="#333333" points="588,-433 480,-433 480,-390 588,-390 588,-433"/>
<text text-anchor="middle" x="534" y="-407.8" font-family="sans-serif" font-size="14.00" fill="#000000">Spell</text>
</g>
<!-- qual2&#45;&gt;Spell -->
<g id="edge21" class="edge">
<title>qual2&#45;&gt;Spell</title>
<path fill="none" stroke="#333333" d="M457.11,-461.88C468.98,-454.25 482.57,-445.53 494.98,-437.56"/>
<polygon fill="#333333" stroke="#333333" points="496.52,-439.9 501.74,-433.22 493.49,-435.19 496.52,-439.9"/>
</g>
<!-- Poison -->
<g id="node12" class="node">
<title>Poison</title>
<polygon fill="#bbbbbb" stroke="#333333" points="732,-433 624,-433 624,-390 732,-390 732,-433"/>
<text text-anchor="middle" x="678" y="-407.8" font-family="sans-serif" font-size="14.00" fill="#000000">Poison</text>
</g>
<!-- qual2&#45;&gt;Poison -->
<g id="edge23" class="edge">
<title>qual2&#45;&gt;Poison</title>
<path fill="none" stroke="#333333" d="M496.83,-463.04C530.07,-453.99 570.07,-443.03 606,-433 609.24,-432.1 612.56,-431.17 615.91,-430.22"/>
<polygon fill="#333333" stroke="#333333" points="616.82,-432.87 623.76,-428.01 615.3,-427.48 616.82,-432.87"/>
</g>
<!-- shield -->
<g id="node7" class="node">
<title>shield</title>
<polygon fill="#1a1a1a" stroke="#333333" points="703,-356 545,-356 545,-313 703,-313 703,-356"/>
<text text-anchor="middle" x="624" y="-330.8" font-family="sans-serif" font-size="14.00" fill="#ffffff">Did it hit your shield?</text>
</g>
<!-- yes_shield -->
<g id="node17" class="node">
<title>yes_shield</title>
<polygon fill="#b4f177" stroke="#333333" points="767,-279 659,-279 659,-236 767,-236 767,-279"/>
<text text-anchor="middle" x="713" y="-253.8" font-family="sans-serif" font-size="14.00" fill="#000000">Yes</text>
</g>
<!-- shield&#45;&gt;yes_shield -->
<g id="edge25" class="edge">
<title>shield&#45;&gt;yes_shield</title>
<path fill="none" stroke="#333333" d="M648.79,-312.61C659.2,-303.84 671.4,-293.55 682.36,-284.32"/>
<polygon fill="#333333" stroke="#333333" points="684.34,-286.32 688.65,-279.02 680.73,-282.03 684.34,-286.32"/>
</g>
<!-- no_shield -->
<g id="node22" class="node">
<title>no_shield</title>
<polygon fill="#ff9999" stroke="#333333" points="623,-279 515,-279 515,-236 623,-236 623,-279"/>
<text text-anchor="middle" x="569" y="-253.8" font-family="sans-serif" font-size="14.00" fill="#000000">No</text>
</g>
<!-- shield&#45;&gt;no_shield -->
<g id="edge27" class="edge">
<title>shield&#45;&gt;no_shield</title>
<path fill="none" stroke="#333333" d="M608.68,-312.61C602.55,-304.25 595.41,-294.51 588.89,-285.62"/>
<polygon fill="#333333" stroke="#333333" points="591.04,-283.82 584.05,-279.02 586.52,-287.13 591.04,-283.82"/>
</g>
<!-- parry1 -->
<g id="node26" class="node">
<title>parry1</title>
<polygon fill="#fff494" stroke="#333333" points="118,-361 0,-361 0,-308 118,-308 118,-361"/>
<text text-anchor="middle" x="59" y="-345.8" font-family="sans-serif" font-size="14.00" fill="#000000">Parry OR</text>
<text text-anchor="middle" x="59" y="-330.8" font-family="sans-serif" font-size="14.00" fill="#000000">Realmsworn</text>
<text text-anchor="middle" x="59" y="-315.8" font-family="sans-serif" font-size="14.00" fill="#000000">Weapon Resist.</text>
</g>
<!-- Weapon&#45;&gt;parry1 -->
<g id="edge16" class="edge">
<title>Weapon&#45;&gt;parry1</title>
<path fill="none" stroke="#333333" d="M77.04,-389.61C74.92,-383.25 72.53,-376.1 70.21,-369.13"/>
<polygon fill="#333333" stroke="#333333" points="72.71,-367.79 67.53,-361.08 67.4,-369.56 72.71,-367.79"/>
</g>
<!-- elem_res -->
<g id="node28" class="node">
<title>elem_res</title>
<polygon fill="#fff494" stroke="#333333" points="369.5,-356 154.5,-356 154.5,-313 369.5,-313 369.5,-356"/>
<text text-anchor="middle" x="262" y="-338.3" font-family="sans-serif" font-size="14.00" fill="#000000">Realmsworn Elemental Resist</text>
<text text-anchor="middle" x="262" y="-323.3" font-family="sans-serif" font-size="14.00" fill="#000000">OR Stalwart Shield (if blocked)</text>
</g>
<!-- Elemental&#45;&gt;elem_res -->
<g id="edge18" class="edge">
<title>Elemental&#45;&gt;elem_res</title>
<path fill="none" stroke="#333333" d="M283.64,-389.61C280.43,-381.58 276.71,-372.27 273.27,-363.67"/>
<polygon fill="#333333" stroke="#333333" points="275.78,-362.41 270.21,-356.02 270.58,-364.49 275.78,-362.41"/>
</g>
<!-- Arcane&#45;&gt;duration -->
<g id="edge20" class="edge">
<title>Arcane&#45;&gt;duration</title>
<path fill="none" stroke="#333333" d="M443.38,-235.61C449.46,-228.7 456.37,-220.85 463,-213.31"/>
<polygon fill="#333333" stroke="#333333" points="465.3,-214.94 468.49,-207.08 461.1,-211.24 465.3,-214.94"/>
</g>
<!-- Spell&#45;&gt;shield -->
<g id="edge22" class="edge">
<title>Spell&#45;&gt;shield</title>
<path fill="none" stroke="#333333" d="M559.07,-389.61C569.59,-380.84 581.94,-370.55 593.02,-361.32"/>
<polygon fill="#333333" stroke="#333333" points="595.02,-363.29 599.38,-356.02 591.44,-358.99 595.02,-363.29"/>
</g>
<!-- Poison&#45;&gt;shield -->
<g id="edge24" class="edge">
<title>Poison&#45;&gt;shield</title>
<path fill="none" stroke="#333333" d="M662.96,-389.61C656.94,-381.25 649.93,-371.51 643.53,-362.62"/>
<polygon fill="#333333" stroke="#333333" points="645.72,-360.88 638.77,-356.02 641.18,-364.15 645.72,-360.88"/>
</g>
<!-- luck1 -->
<g id="node23" class="node">
<title>luck1</title>
<polygon fill="#ff66cc" stroke="#333333" points="278,-793 170,-793 170,-750 278,-750 278,-793"/>
<text text-anchor="middle" x="224" y="-767.8" font-family="sans-serif" font-size="14.00" fill="#000000">ok</text>
</g>
<!-- yes_take&#45;&gt;luck1 -->
<g id="edge4" class="edge">
<title>yes_take&#45;&gt;luck1</title>
<path fill="none" stroke="#333333" d="M231.05,-821.88C230.13,-815.38 229.08,-808.09 228.09,-801.15"/>
<polygon fill="#333333" stroke="#333333" points="230.86,-800.74 226.96,-793.22 225.32,-801.53 230.86,-800.74"/>
</g>
<!-- yes_qual&#45;&gt;blocked -->
<g id="edge10" class="edge">
<title>yes_qual&#45;&gt;blocked</title>
<path fill="none" stroke="#333333" d="M315.69,-677.88C312.37,-671.24 308.64,-663.77 305.1,-656.69"/>
<polygon fill="#333333" stroke="#333333" points="307.44,-655.12 301.36,-649.22 302.43,-657.63 307.44,-655.12"/>
</g>
<!-- counter -->
<g id="node27" class="node">
<title>counter</title>
<polygon fill="#fff494" stroke="#333333" points="272,-505 164,-505 164,-462 272,-462 272,-505"/>
<text text-anchor="middle" x="218" y="-479.8" font-family="sans-serif" font-size="14.00" fill="#000000">Counteract.</text>
</g>
<!-- yes_inter&#45;&gt;counter -->
<g id="edge12" class="edge">
<title>yes_inter&#45;&gt;counter</title>
<path fill="none" stroke="#333333" d="M218,-533.88C218,-527.52 218,-520.41 218,-513.6"/>
<polygon fill="#333333" stroke="#333333" points="220.8,-513.22 218,-505.22 215.2,-513.22 220.8,-513.22"/>
</g>
<!-- mettle -->
<g id="node29" class="node">
<title>mettle</title>
<polygon fill="#fff494" stroke="#333333" points="474,-53 362,-53 362,0 474,0 474,-53"/>
<text text-anchor="middle" x="418" y="-37.8" font-family="sans-serif" font-size="14.00" fill="#000000">Mettle (unless</text>
<text text-anchor="middle" x="418" y="-22.8" font-family="sans-serif" font-size="14.00" fill="#000000">less than 20</text>
<text text-anchor="middle" x="418" y="-7.8" font-family="sans-serif" font-size="14.00" fill="#000000">body)</text>
</g>
<!-- yes_dur&#45;&gt;mettle -->
<g id="edge30" class="edge">
<title>yes_dur&#45;&gt;mettle</title>
<path fill="none" stroke="#333333" d="M418.72,-81.61C418.64,-75.25 418.54,-68.1 418.45,-61.13"/>
<polygon fill="#333333" stroke="#333333" points="421.25,-61.05 418.34,-53.08 415.65,-61.12 421.25,-61.05"/>
</g>
<!-- stalwart -->
<g id="node30" class="node">
<title>stalwart</title>
<polygon fill="#fff494" stroke="#333333" points="770.5,-202 655.5,-202 655.5,-159 770.5,-159 770.5,-202"/>
<text text-anchor="middle" x="713" y="-184.3" font-family="sans-serif" font-size="14.00" fill="#000000">Stalwart Shield</text>
<text text-anchor="middle" x="713" y="-169.3" font-family="sans-serif" font-size="14.00" fill="#000000">(&#39;Cloak&#39;)</text>
</g>
<!-- yes_shield&#45;&gt;stalwart -->
<g id="edge26" class="edge">
<title>yes_shield&#45;&gt;stalwart</title>
<path fill="none" stroke="#333333" d="M713,-235.61C713,-227.74 713,-218.65 713,-210.2"/>
<polygon fill="#333333" stroke="#333333" points="715.8,-210.02 713,-202.02 710.2,-210.02 715.8,-210.02"/>
</g>
<!-- no_take&#45;&gt;qualifier -->
<g id="edge6" class="edge">
<title>no_take&#45;&gt;qualifier</title>
<path fill="none" stroke="#333333" d="M384.77,-821.88C385.31,-815.52 385.92,-808.41 386.51,-801.6"/>
<polygon fill="#333333" stroke="#333333" points="389.33,-801.43 387.22,-793.22 383.75,-800.95 389.33,-801.43"/>
</g>
<!-- no_qual&#45;&gt;qual2 -->
<g id="edge9" class="edge">
<title>no_qual&#45;&gt;qual2</title>
<path fill="none" stroke="#333333" d="M464.31,-605.85C456.37,-581.35 443.1,-540.36 434.2,-512.89"/>
<polygon fill="#333333" stroke="#333333" points="436.83,-511.92 431.7,-505.17 431.5,-513.65 436.83,-511.92"/>
</g>
<!-- luck2 -->
<g id="node24" class="node">
<title>luck2</title>
<polygon fill="#ff66cc" stroke="#333333" points="618,-48 510,-48 510,-5 618,-5 618,-48"/>
<text text-anchor="middle" x="564" y="-30.3" font-family="sans-serif" font-size="14.00" fill="#000000">lol good</text>
<text text-anchor="middle" x="564" y="-15.3" font-family="sans-serif" font-size="14.00" fill="#000000">luck girl</text>
</g>
<!-- no_dur&#45;&gt;luck2 -->
<g id="edge32" class="edge">
<title>no_dur&#45;&gt;luck2</title>
<path fill="none" stroke="#333333" d="M563.28,-81.61C563.38,-73.74 563.5,-64.65 563.62,-56.2"/>
<polygon fill="#333333" stroke="#333333" points="566.42,-56.06 563.73,-48.02 560.82,-55.98 566.42,-56.06"/>
</g>
<!-- no_block&#45;&gt;qual2 -->
<g id="edge14" class="edge">
<title>no_block&#45;&gt;qual2</title>
<path fill="none" stroke="#333333" d="M380.56,-533.88C386.91,-526.82 394.11,-518.82 400.84,-511.34"/>
<polygon fill="#333333" stroke="#333333" points="403.08,-513.04 406.35,-505.22 398.92,-509.29 403.08,-513.04"/>
</g>
<!-- no_shield&#45;&gt;duration -->
<g id="edge28" class="edge">
<title>no_shield&#45;&gt;duration</title>
<path fill="none" stroke="#333333" d="M547.27,-235.61C539.94,-228.56 531.6,-220.54 523.62,-212.86"/>
<polygon fill="#333333" stroke="#333333" points="525.32,-210.61 517.61,-207.08 521.43,-214.65 525.32,-210.61"/>
</g>
<!-- dumb_def&#45;&gt;hit2 -->
<g id="edge2" class="edge">
<title>dumb_def&#45;&gt;hit2</title>
<path fill="none" stroke="#333333" d="M306,-975.92C306,-969.25 306,-962.23 306,-955.53"/>
<polygon fill="#333333" stroke="#333333" points="308.8,-955.26 306,-947.26 303.2,-955.26 308.8,-955.26"/>
</g>
</g>
</svg>
