<?xml version="1.0" encoding="UTF-8" standalone="no"?>
<!DOCTYPE svg PUBLIC "-//W3C//DTD SVG 1.1//EN"
 "http://www.w3.org/Graphics/SVG/1.1/DTD/svg11.dtd">
<!-- Generated by graphviz version 2.43.0 (0)
 -->
<!-- Title: G Pages: 1 -->
<svg width="779pt" height="1124pt"
 viewBox="0.00 0.00 778.50 1124.00" xmlns="http://www.w3.org/2000/svg" xmlns:xlink="http://www.w3.org/1999/xlink">
<g id="graph0" class="graph" transform="scale(1 1) rotate(0) translate(4 1120)">
<title>G</title>
<polygon fill="white" stroke="transparent" points="-4,4 -4,-1120 774.5,-1120 774.5,4 -4,4"/>
<!-- hit1 -->
<g id="node1" class="node">
<title>hit1</title>
<polygon fill="#1a1a1a" stroke="#333333" points="293,-1116 185,-1116 185,-1073 293,-1073 293,-1116"/>
<text text-anchor="middle" x="239" y="-1090.8" font-family="sans-serif" font-size="14.00" fill="#ffffff">I&#39;ve been hit!</text>
</g>
<!-- dumb_def -->
<g id="node25" class="node">
<title>dumb_def</title>
<polygon fill="#fff494" stroke="#333333" points="328.5,-1044 149.5,-1044 149.5,-976 328.5,-976 328.5,-1044"/>
<text text-anchor="middle" x="239" y="-1028.8" font-family="sans-serif" font-size="14.00" fill="#000000">Dumb Defense Triggers:</text>
<text text-anchor="middle" x="239" y="-1013.8" font-family="sans-serif" font-size="14.00" fill="#000000">Weapon Shield, Spell</text>
<text text-anchor="middle" x="239" y="-998.8" font-family="sans-serif" font-size="14.00" fill="#000000">Shield, Elemental Shield,</text>
<text text-anchor="middle" x="239" y="-983.8" font-family="sans-serif" font-size="14.00" fill="#000000">Poison Shield, Reflect</text>
</g>
<!-- hit1&#45;&gt;dumb_def -->
<g id="edge1" class="edge">
<title>hit1&#45;&gt;dumb_def</title>
<path fill="none" stroke="#333333" d="M239,-1072.68C239,-1066.44 239,-1059.36 239,-1052.28"/>
<polygon fill="#333333" stroke="#333333" points="241.8,-1052.01 239,-1044.01 236.2,-1052.01 241.8,-1052.01"/>
</g>
<!-- hit2 -->
<g id="node2" class="node">
<title>hit2</title>
<polygon fill="#1a1a1a" stroke="#333333" points="301,-947 177,-947 177,-894 301,-894 301,-947"/>
<text text-anchor="middle" x="239" y="-931.8" font-family="sans-serif" font-size="14.00" fill="#ffffff">I&#39;ve been hit</text>
<text text-anchor="middle" x="239" y="-916.8" font-family="sans-serif" font-size="14.00" fill="#ffffff">again! Do I want</text>
<text text-anchor="middle" x="239" y="-901.8" font-family="sans-serif" font-size="14.00" fill="#ffffff">to take it?</text>
</g>
<!-- yes_take -->
<g id="node13" class="node">
<title>yes_take</title>
<polygon fill="#b4f177" stroke="#333333" points="221,-865 113,-865 113,-822 221,-822 221,-865"/>
<text text-anchor="middle" x="167" y="-839.8" font-family="sans-serif" font-size="14.00" fill="#000000">Yes</text>
</g>
<!-- hit2&#45;&gt;yes_take -->
<g id="edge3" class="edge">
<title>hit2&#45;&gt;yes_take</title>
<path fill="none" stroke="#333333" d="M214.22,-893.69C207.23,-886.41 199.61,-878.47 192.57,-871.14"/>
<polygon fill="#333333" stroke="#333333" points="194.39,-868.98 186.83,-865.15 190.35,-872.86 194.39,-868.98"/>
</g>
<!-- no_take -->
<g id="node18" class="node">
<title>no_take</title>
<polygon fill="#ff9999" stroke="#333333" points="366,-865 258,-865 258,-822 366,-822 366,-865"/>
<text text-anchor="middle" x="312" y="-839.8" font-family="sans-serif" font-size="14.00" fill="#000000">No</text>
</g>
<!-- hit2&#45;&gt;no_take -->
<g id="edge5" class="edge">
<title>hit2&#45;&gt;no_take</title>
<path fill="none" stroke="#333333" d="M264.12,-893.69C271.21,-886.41 278.94,-878.47 286.07,-871.14"/>
<polygon fill="#333333" stroke="#333333" points="288.33,-872.84 291.9,-865.15 284.31,-868.93 288.33,-872.84"/>
</g>
<!-- blocked -->
<g id="node3" class="node">
<title>blocked</title>
<polygon fill="#1a1a1a" stroke="#333333" points="305.5,-649 126.5,-649 126.5,-606 305.5,-606 305.5,-649"/>
<text text-anchor="middle" x="216" y="-623.8" font-family="sans-serif" font-size="14.00" fill="#ffffff">Did you actually block it?</text>
</g>
<!-- yes_inter -->
<g id="node15" class="node">
<title>yes_inter</title>
<polygon fill="#b4f177" stroke="#333333" points="197,-577 89,-577 89,-534 197,-534 197,-577"/>
<text text-anchor="middle" x="143" y="-551.8" font-family="sans-serif" font-size="14.00" fill="#000000">Yes</text>
</g>
<!-- blocked&#45;&gt;yes_inter -->
<g id="edge11" class="edge">
<title>blocked&#45;&gt;yes_inter</title>
<path fill="none" stroke="#333333" d="M194.49,-605.88C186.99,-598.68 178.45,-590.5 170.53,-582.89"/>
<polygon fill="#333333" stroke="#333333" points="172.32,-580.73 164.61,-577.22 168.44,-584.78 172.32,-580.73"/>
</g>
<!-- no_block -->
<g id="node21" class="node">
<title>no_block</title>
<polygon fill="#ff9999" stroke="#333333" points="341,-577 233,-577 233,-534 341,-534 341,-577"/>
<text text-anchor="middle" x="287" y="-551.8" font-family="sans-serif" font-size="14.00" fill="#000000">No</text>
</g>
<!-- blocked&#45;&gt;no_block -->
<g id="edge13" class="edge">
<title>blocked&#45;&gt;no_block</title>
<path fill="none" stroke="#333333" d="M236.92,-605.88C244.22,-598.68 252.52,-590.5 260.23,-582.89"/>
<polygon fill="#333333" stroke="#333333" points="262.25,-584.83 265.99,-577.22 258.32,-580.84 262.25,-584.83"/>
</g>
<!-- qualifier -->
<g id="node4" class="node">
<title>qualifier</title>
<polygon fill="#1a1a1a" stroke="#333333" points="373.5,-793 254.5,-793 254.5,-750 373.5,-750 373.5,-793"/>
<text text-anchor="middle" x="314" y="-775.3" font-family="sans-serif" font-size="14.00" fill="#ffffff">Does it have a</text>
<text text-anchor="middle" x="314" y="-760.3" font-family="sans-serif" font-size="14.00" fill="#ffffff">strike qualifier?</text>
</g>
<!-- yes_qual -->
<g id="node14" class="node">
<title>yes_qual</title>
<polygon fill="#b4f177" stroke="#333333" points="305,-721 197,-721 197,-678 305,-678 305,-721"/>
<text text-anchor="middle" x="251" y="-695.8" font-family="sans-serif" font-size="14.00" fill="#000000">Yes</text>
</g>
<!-- qualifier&#45;&gt;yes_qual -->
<g id="edge7" class="edge">
<title>qualifier&#45;&gt;yes_qual</title>
<path fill="none" stroke="#333333" d="M295.44,-749.88C289.09,-742.82 281.89,-734.82 275.16,-727.34"/>
<polygon fill="#333333" stroke="#333333" points="277.08,-725.29 269.65,-721.22 272.92,-729.04 277.08,-725.29"/>
</g>
<!-- no_qual -->
<g id="node19" class="node">
<title>no_qual</title>
<polygon fill="#ff9999" stroke="#333333" points="450,-649 342,-649 342,-606 450,-606 450,-649"/>
<text text-anchor="middle" x="396" y="-623.8" font-family="sans-serif" font-size="14.00" fill="#000000">No</text>
</g>
<!-- qualifier&#45;&gt;no_qual -->
<g id="edge8" class="edge">
<title>qualifier&#45;&gt;no_qual</title>
<path fill="none" stroke="#333333" d="M325.92,-749.85C340.19,-725.14 364.15,-683.66 380.02,-656.18"/>
<polygon fill="#333333" stroke="#333333" points="382.49,-657.5 384.06,-649.17 377.64,-654.7 382.49,-657.5"/>
</g>
<!-- duration -->
<g id="node5" class="node">
<title>duration</title>
<polygon fill="#1a1a1a" stroke="#333333" points="407,-505 283,-505 283,-452 407,-452 407,-505"/>
<text text-anchor="middle" x="345" y="-489.8" font-family="sans-serif" font-size="14.00" fill="#ffffff">Does it rely on a</text>
<text text-anchor="middle" x="345" y="-474.8" font-family="sans-serif" font-size="14.00" fill="#ffffff">duration or line</text>
<text text-anchor="middle" x="345" y="-459.8" font-family="sans-serif" font-size="14.00" fill="#ffffff">of sight?</text>
</g>
<!-- yes_dur -->
<g id="node16" class="node">
<title>yes_dur</title>
<polygon fill="#b4f177" stroke="#333333" points="325,-423 217,-423 217,-380 325,-380 325,-423"/>
<text text-anchor="middle" x="271" y="-397.8" font-family="sans-serif" font-size="14.00" fill="#000000">Yes</text>
</g>
<!-- duration&#45;&gt;yes_dur -->
<g id="edge15" class="edge">
<title>duration&#45;&gt;yes_dur</title>
<path fill="none" stroke="#333333" d="M319.53,-451.69C312.35,-444.41 304.52,-436.47 297.28,-429.14"/>
<polygon fill="#333333" stroke="#333333" points="298.99,-426.88 291.38,-423.15 295,-430.81 298.99,-426.88"/>
</g>
<!-- no_dur -->
<g id="node20" class="node">
<title>no_dur</title>
<polygon fill="#ff9999" stroke="#333333" points="474,-423 366,-423 366,-380 474,-380 474,-423"/>
<text text-anchor="middle" x="420" y="-397.8" font-family="sans-serif" font-size="14.00" fill="#000000">No</text>
</g>
<!-- duration&#45;&gt;no_dur -->
<g id="edge17" class="edge">
<title>duration&#45;&gt;no_dur</title>
<path fill="none" stroke="#333333" d="M370.81,-451.69C378.09,-444.41 386.03,-436.47 393.36,-429.14"/>
<polygon fill="#333333" stroke="#333333" points="395.67,-430.79 399.35,-423.15 391.71,-426.83 395.67,-430.79"/>
</g>
<!-- qual2 -->
<g id="node6" class="node">
<title>qual2</title>
<polygon fill="#1a1a1a" stroke="#333333" points="496.5,-346 353.5,-346 353.5,-303 496.5,-303 496.5,-346"/>
<text text-anchor="middle" x="425" y="-320.8" font-family="sans-serif" font-size="14.00" fill="#ffffff">What qualifier is it?</text>
</g>
<!-- Weapon -->
<g id="node8" class="node">
<title>Weapon</title>
<polygon fill="#bbbbbb" stroke="#333333" points="153.5,-269 14.5,-269 14.5,-226 153.5,-226 153.5,-269"/>
<text text-anchor="middle" x="84" y="-251.3" font-family="sans-serif" font-size="14.00" fill="#000000">Weapon</text>
<text text-anchor="middle" x="84" y="-236.3" font-family="sans-serif" font-size="14.00" fill="#000000">(or they didn&#39;t say)</text>
</g>
<!-- qual2&#45;&gt;Weapon -->
<g id="edge19" class="edge">
<title>qual2&#45;&gt;Weapon</title>
<path fill="none" stroke="#333333" d="M354.4,-302.91C347.86,-301.18 341.32,-299.52 335,-298 277.31,-284.16 211.5,-271.29 161.74,-262.14"/>
<polygon fill="#333333" stroke="#333333" points="161.95,-259.34 153.58,-260.65 160.94,-264.84 161.95,-259.34"/>
</g>
<!-- Elemental -->
<g id="node9" class="node">
<title>Elemental</title>
<polygon fill="#bbbbbb" stroke="#333333" points="346,-269 238,-269 238,-226 346,-226 346,-269"/>
<text text-anchor="middle" x="292" y="-243.8" font-family="sans-serif" font-size="14.00" fill="#000000">Elemental</text>
</g>
<!-- qual2&#45;&gt;Elemental -->
<g id="edge21" class="edge">
<title>qual2&#45;&gt;Elemental</title>
<path fill="none" stroke="#333333" d="M388.31,-302.81C372.02,-293.63 352.74,-282.75 335.72,-273.15"/>
<polygon fill="#333333" stroke="#333333" points="336.92,-270.62 328.58,-269.13 334.17,-275.49 336.92,-270.62"/>
</g>
<!-- Arcane -->
<g id="node10" class="node">
<title>Arcane</title>
<polygon fill="#bbbbbb" stroke="#333333" points="479,-115 371,-115 371,-72 479,-72 479,-115"/>
<text text-anchor="middle" x="425" y="-89.8" font-family="sans-serif" font-size="14.00" fill="#000000">Arcane</text>
</g>
<!-- qual2&#45;&gt;Arcane -->
<g id="edge23" class="edge">
<title>qual2&#45;&gt;Arcane</title>
<path fill="none" stroke="#333333" d="M425,-302.77C425,-261.73 425,-170.04 425,-123.21"/>
<polygon fill="#333333" stroke="#333333" points="427.8,-123.01 425,-115.01 422.2,-123.01 427.8,-123.01"/>
</g>
<!-- Spell -->
<g id="node11" class="node">
<title>Spell</title>
<polygon fill="#bbbbbb" stroke="#333333" points="588,-269 480,-269 480,-226 588,-226 588,-269"/>
<text text-anchor="middle" x="534" y="-243.8" font-family="sans-serif" font-size="14.00" fill="#000000">Spell</text>
</g>
<!-- qual2&#45;&gt;Spell -->
<g id="edge25" class="edge">
<title>qual2&#45;&gt;Spell</title>
<path fill="none" stroke="#333333" d="M455.07,-302.81C468.18,-293.79 483.66,-283.14 497.42,-273.67"/>
<polygon fill="#333333" stroke="#333333" points="499.02,-275.97 504.02,-269.13 495.85,-271.35 499.02,-275.97"/>
</g>
<!-- Poison -->
<g id="node12" class="node">
<title>Poison</title>
<polygon fill="#bbbbbb" stroke="#333333" points="732,-269 624,-269 624,-226 732,-226 732,-269"/>
<text text-anchor="middle" x="678" y="-243.8" font-family="sans-serif" font-size="14.00" fill="#000000">Poison</text>
</g>
<!-- qual2&#45;&gt;Poison -->
<g id="edge27" class="edge">
<title>qual2&#45;&gt;Poison</title>
<path fill="none" stroke="#333333" d="M494.47,-302.91C532.57,-291.61 579.41,-277.73 616.23,-266.81"/>
<polygon fill="#333333" stroke="#333333" points="617.05,-269.49 623.92,-264.53 615.46,-264.12 617.05,-269.49"/>
</g>
<!-- shield -->
<g id="node7" class="node">
<title>shield</title>
<polygon fill="#1a1a1a" stroke="#333333" points="703,-192 545,-192 545,-149 703,-149 703,-192"/>
<text text-anchor="middle" x="624" y="-166.8" font-family="sans-serif" font-size="14.00" fill="#ffffff">Did it hit your shield?</text>
</g>
<!-- yes_shield -->
<g id="node17" class="node">
<title>yes_shield</title>
<polygon fill="#b4f177" stroke="#333333" points="767,-115 659,-115 659,-72 767,-72 767,-115"/>
<text text-anchor="middle" x="713" y="-89.8" font-family="sans-serif" font-size="14.00" fill="#000000">Yes</text>
</g>
<!-- shield&#45;&gt;yes_shield -->
<g id="edge29" class="edge">
<title>shield&#45;&gt;yes_shield</title>
<path fill="none" stroke="#333333" d="M648.79,-148.61C659.2,-139.84 671.4,-129.55 682.36,-120.32"/>
<polygon fill="#333333" stroke="#333333" points="684.34,-122.32 688.65,-115.02 680.73,-118.03 684.34,-122.32"/>
</g>
<!-- no_shield -->
<g id="node22" class="node">
<title>no_shield</title>
<polygon fill="#ff9999" stroke="#333333" points="623,-115 515,-115 515,-72 623,-72 623,-115"/>
<text text-anchor="middle" x="569" y="-89.8" font-family="sans-serif" font-size="14.00" fill="#000000">No</text>
</g>
<!-- shield&#45;&gt;no_shield -->
<g id="edge31" class="edge">
<title>shield&#45;&gt;no_shield</title>
<path fill="none" stroke="#333333" d="M608.68,-148.61C602.55,-140.25 595.41,-130.51 588.89,-121.62"/>
<polygon fill="#333333" stroke="#333333" points="591.04,-119.82 584.05,-115.02 586.52,-123.13 591.04,-119.82"/>
</g>
<!-- parry1 -->
<g id="node26" class="node">
<title>parry1</title>
<polygon fill="#fff494" stroke="#333333" points="118,-197 0,-197 0,-144 118,-144 118,-197"/>
<text text-anchor="middle" x="59" y="-181.8" font-family="sans-serif" font-size="14.00" fill="#000000">Parry OR</text>
<text text-anchor="middle" x="59" y="-166.8" font-family="sans-serif" font-size="14.00" fill="#000000">Realmsworn</text>
<text text-anchor="middle" x="59" y="-151.8" font-family="sans-serif" font-size="14.00" fill="#000000">Weapon Resist.</text>
</g>
<!-- Weapon&#45;&gt;parry1 -->
<g id="edge20" class="edge">
<title>Weapon&#45;&gt;parry1</title>
<path fill="none" stroke="#333333" d="M77.04,-225.61C74.92,-219.25 72.53,-212.1 70.21,-205.13"/>
<polygon fill="#333333" stroke="#333333" points="72.71,-203.79 67.53,-197.08 67.4,-205.56 72.71,-203.79"/>
</g>
<!-- elem_res -->
<g id="node28" class="node">
<title>elem_res</title>
<polygon fill="#fff494" stroke="#333333" points="369.5,-192 154.5,-192 154.5,-149 369.5,-149 369.5,-192"/>
<text text-anchor="middle" x="262" y="-174.3" font-family="sans-serif" font-size="14.00" fill="#000000">Realmsworn Elemental Resist</text>
<text text-anchor="middle" x="262" y="-159.3" font-family="sans-serif" font-size="14.00" fill="#000000">OR Stalwart Shield (if blocked)</text>
</g>
<!-- Elemental&#45;&gt;elem_res -->
<g id="edge22" class="edge">
<title>Elemental&#45;&gt;elem_res</title>
<path fill="none" stroke="#333333" d="M283.64,-225.61C280.43,-217.58 276.71,-208.27 273.27,-199.67"/>
<polygon fill="#333333" stroke="#333333" points="275.78,-198.41 270.21,-192.02 270.58,-200.49 275.78,-198.41"/>
</g>
<!-- luck2 -->
<g id="node24" class="node">
<title>luck2</title>
<polygon fill="#ff66cc" stroke="#333333" points="549,-43 441,-43 441,0 549,0 549,-43"/>
<text text-anchor="middle" x="495" y="-25.3" font-family="sans-serif" font-size="14.00" fill="#000000">lol good</text>
<text text-anchor="middle" x="495" y="-10.3" font-family="sans-serif" font-size="14.00" fill="#000000">luck girl</text>
</g>
<!-- Arcane&#45;&gt;luck2 -->
<g id="edge24" class="edge">
<title>Arcane&#45;&gt;luck2</title>
<path fill="none" stroke="#333333" d="M445.62,-71.88C452.82,-64.68 461,-56.5 468.61,-48.89"/>
<polygon fill="#333333" stroke="#333333" points="470.6,-50.85 474.28,-43.22 466.65,-46.9 470.6,-50.85"/>
</g>
<!-- Spell&#45;&gt;shield -->
<g id="edge26" class="edge">
<title>Spell&#45;&gt;shield</title>
<path fill="none" stroke="#333333" d="M559.07,-225.61C569.59,-216.84 581.94,-206.55 593.02,-197.32"/>
<polygon fill="#333333" stroke="#333333" points="595.02,-199.29 599.38,-192.02 591.44,-194.99 595.02,-199.29"/>
</g>
<!-- Poison&#45;&gt;shield -->
<g id="edge28" class="edge">
<title>Poison&#45;&gt;shield</title>
<path fill="none" stroke="#333333" d="M662.96,-225.61C656.94,-217.25 649.93,-207.51 643.53,-198.62"/>
<polygon fill="#333333" stroke="#333333" points="645.72,-196.88 638.77,-192.02 641.18,-200.15 645.72,-196.88"/>
</g>
<!-- luck1 -->
<g id="node23" class="node">
<title>luck1</title>
<polygon fill="#ff66cc" stroke="#333333" points="218,-793 110,-793 110,-750 218,-750 218,-793"/>
<text text-anchor="middle" x="164" y="-767.8" font-family="sans-serif" font-size="14.00" fill="#000000">ok</text>
</g>
<!-- yes_take&#45;&gt;luck1 -->
<g id="edge4" class="edge">
<title>yes_take&#45;&gt;luck1</title>
<path fill="none" stroke="#333333" d="M166.12,-821.88C165.84,-815.52 165.54,-808.41 165.25,-801.6"/>
<polygon fill="#333333" stroke="#333333" points="168.03,-801.09 164.89,-793.22 162.43,-801.33 168.03,-801.09"/>
</g>
<!-- yes_qual&#45;&gt;blocked -->
<g id="edge10" class="edge">
<title>yes_qual&#45;&gt;blocked</title>
<path fill="none" stroke="#333333" d="M240.69,-677.88C237.37,-671.24 233.64,-663.77 230.1,-656.69"/>
<polygon fill="#333333" stroke="#333333" points="232.44,-655.12 226.36,-649.22 227.43,-657.63 232.44,-655.12"/>
</g>
<!-- counter -->
<g id="node27" class="node">
<title>counter</title>
<polygon fill="#fff494" stroke="#333333" points="197,-500 89,-500 89,-457 197,-457 197,-500"/>
<text text-anchor="middle" x="143" y="-474.8" font-family="sans-serif" font-size="14.00" fill="#000000">Counteract.</text>
</g>
<!-- yes_inter&#45;&gt;counter -->
<g id="edge12" class="edge">
<title>yes_inter&#45;&gt;counter</title>
<path fill="none" stroke="#333333" d="M143,-533.61C143,-525.74 143,-516.65 143,-508.2"/>
<polygon fill="#333333" stroke="#333333" points="145.8,-508.02 143,-500.02 140.2,-508.02 145.8,-508.02"/>
</g>
<!-- mettle -->
<g id="node29" class="node">
<title>mettle</title>
<polygon fill="#fff494" stroke="#333333" points="317,-351 205,-351 205,-298 317,-298 317,-351"/>
<text text-anchor="middle" x="261" y="-335.8" font-family="sans-serif" font-size="14.00" fill="#000000">Mettle (unless</text>
<text text-anchor="middle" x="261" y="-320.8" font-family="sans-serif" font-size="14.00" fill="#000000">less than 20</text>
<text text-anchor="middle" x="261" y="-305.8" font-family="sans-serif" font-size="14.00" fill="#000000">body)</text>
</g>
<!-- yes_dur&#45;&gt;mettle -->
<g id="edge16" class="edge">
<title>yes_dur&#45;&gt;mettle</title>
<path fill="none" stroke="#333333" d="M268.21,-379.61C267.37,-373.25 266.41,-366.1 265.48,-359.13"/>
<polygon fill="#333333" stroke="#333333" points="268.24,-358.64 264.41,-351.08 262.69,-359.38 268.24,-358.64"/>
</g>
<!-- stalwart -->
<g id="node30" class="node">
<title>stalwart</title>
<polygon fill="#fff494" stroke="#333333" points="770.5,-43 655.5,-43 655.5,0 770.5,0 770.5,-43"/>
<text text-anchor="middle" x="713" y="-25.3" font-family="sans-serif" font-size="14.00" fill="#000000">Stalwart Shield</text>
<text text-anchor="middle" x="713" y="-10.3" font-family="sans-serif" font-size="14.00" fill="#000000">(&quot;Cloak&quot;)</text>
</g>
<!-- yes_shield&#45;&gt;stalwart -->
<g id="edge30" class="edge">
<title>yes_shield&#45;&gt;stalwart</title>
<path fill="none" stroke="#333333" d="M713,-71.88C713,-65.52 713,-58.41 713,-51.6"/>
<polygon fill="#333333" stroke="#333333" points="715.8,-51.22 713,-43.22 710.2,-51.22 715.8,-51.22"/>
</g>
<!-- no_take&#45;&gt;qualifier -->
<g id="edge6" class="edge">
<title>no_take&#45;&gt;qualifier</title>
<path fill="none" stroke="#333333" d="M312.59,-821.88C312.77,-815.52 312.97,-808.41 313.17,-801.6"/>
<polygon fill="#333333" stroke="#333333" points="315.98,-801.29 313.41,-793.22 310.38,-801.13 315.98,-801.29"/>
</g>
<!-- no_qual&#45;&gt;duration -->
<g id="edge9" class="edge">
<title>no_qual&#45;&gt;duration</title>
<path fill="none" stroke="#333333" d="M388.8,-605.75C380.42,-581.59 366.46,-541.35 356.55,-512.8"/>
<polygon fill="#333333" stroke="#333333" points="359.14,-511.72 353.88,-505.08 353.85,-513.56 359.14,-511.72"/>
</g>
<!-- no_dur&#45;&gt;qual2 -->
<g id="edge18" class="edge">
<title>no_dur&#45;&gt;qual2</title>
<path fill="none" stroke="#333333" d="M421.39,-379.61C421.92,-371.74 422.52,-362.65 423.09,-354.2"/>
<polygon fill="#333333" stroke="#333333" points="425.89,-354.19 423.63,-346.02 420.31,-353.82 425.89,-354.19"/>
</g>
<!-- no_block&#45;&gt;duration -->
<g id="edge14" class="edge">
<title>no_block&#45;&gt;duration</title>
<path fill="none" stroke="#333333" d="M303.16,-533.61C308.39,-526.84 314.33,-519.16 320.05,-511.77"/>
<polygon fill="#333333" stroke="#333333" points="322.54,-513.13 325.21,-505.08 318.11,-509.7 322.54,-513.13"/>
</g>
<!-- no_shield&#45;&gt;luck2 -->
<g id="edge32" class="edge">
<title>no_shield&#45;&gt;luck2</title>
<path fill="none" stroke="#333333" d="M547.2,-71.88C539.59,-64.68 530.94,-56.5 522.9,-48.89"/>
<polygon fill="#333333" stroke="#333333" points="524.64,-46.68 516.9,-43.22 520.79,-50.75 524.64,-46.68"/>
</g>
<!-- dumb_def&#45;&gt;hit2 -->
<g id="edge2" class="edge">
<title>dumb_def&#45;&gt;hit2</title>
<path fill="none" stroke="#333333" d="M239,-975.92C239,-969.25 239,-962.23 239,-955.53"/>
<polygon fill="#333333" stroke="#333333" points="241.8,-955.26 239,-947.26 236.2,-955.26 241.8,-955.26"/>
</g>
</g>
</svg>
